<?xml version="1.0" encoding="UTF-8"?>
<!DOCTYPE svg PUBLIC "-//W3C//DTD SVG 1.1//EN" "http://www.w3.org/Graphics/SVG/1.1/DTD/svg11.dtd">
<!-- Creator: CorelDRAW X7 -->
<svg xmlns="http://www.w3.org/2000/svg" xml:space="preserve" width="210mm" height="297mm" version="1.1" style="shape-rendering:geometricPrecision; text-rendering:geometricPrecision; image-rendering:optimizeQuality; fill-rule:evenodd; clip-rule:evenodd"
viewBox="0 0 21000 29700"
 xmlns:xlink="http://www.w3.org/1999/xlink"
 data-name="Layer 1">
 <defs>
  <style type="text/css">
   <![CDATA[
    .str0 {stroke:#373435;stroke-width:7.62}
    .fil0 {fill:#FEFEFE}
   ]]>
  </style>
 </defs>
 <g id="Layer_x0020_1">
  <metadata id="CorelCorpID_0Corel-Layer"/>
  <path class="fil0 str0" d="M9625 17475c0,1837 -444,3637 -464,3712 -99,398 -456,663 -848,663 -70,0 -141,-9 -212,-26 -469,-117 -755,-592 -638,-1061 2,-10 169,-687 289,-1597 -416,162 -893,-17 -1097,-424 -217,-431 -42,-957 390,-1174 291,-146 842,-468 1086,-711 251,-250 625,-327 954,-190 327,135 540,455 540,809l0 -1zm7875 -13125l-8750 0c-1783,0 -3500,1369 -3500,3500l0 1313c0,1750 1032,1111 1426,773 524,-448 1292,-448 1815,0 395,338 889,539 1426,539 538,0 1032,-201 1427,-539 523,-448 1291,-448 1814,0 395,338 889,539 1427,539 537,0 1031,-201 1426,-539 523,-448 1291,-448 1815,0 166,143 353,254 551,343l0 9533c0,556 -352,1053 -875,1238 -684,242 -1041,992 -800,1675 191,539 697,875 1237,875 146,0 293,-24 438,-75 1570,-556 2625,-2048 2625,-3713l0 -11962c0,-2087 -1657,-3500 -3500,-3500l-2 0zm-1752 9560l0 11c2,4136 -868,7578 -1386,9268 -396,1293 -1572,2162 -2927,2162l-8647 0c-858,0 -1655,-385 -2186,-1058 -534,-675 -725,-1546 -525,-2387 121,-507 291,-1090 478,-1732 516,-1769 1160,-3969 1192,-6216 5,-372 168,-724 447,-968l125 -110c1023,-875 2504,-876 3524,-1 119,101 314,223 573,223 258,0 453,-122 571,-223 1021,-875 2502,-875 3523,0 119,101 314,223 572,223 258,0 453,-122 572,-223 1021,-875 2503,-875 3523,0 313,236 554,641 570,1033l1 -2zm-2646 1165c-1278,906 -3098,827 -4299,-204 -31,-27 -74,-27 -107,0 -1224,1051 -3090,1110 -4373,150 -172,2205 -762,4223 -1248,5888 -174,595 -332,1135 -445,1605 -13,57 -2,108 32,152 47,59 106,59 125,59l8647 0c194,0 362,-123 418,-307 428,-1395 1116,-4093 1249,-7344l1 1z"/>
 </g>
</svg>
