<?xml version="1.0" encoding="UTF-8"?>
<!DOCTYPE svg PUBLIC "-//W3C//DTD SVG 1.1//EN" "http://www.w3.org/Graphics/SVG/1.1/DTD/svg11.dtd">
<!-- Creator: CorelDRAW X7 -->
<svg xmlns="http://www.w3.org/2000/svg" xml:space="preserve" width="210mm" height="297mm" version="1.1" style="shape-rendering:geometricPrecision; text-rendering:geometricPrecision; image-rendering:optimizeQuality; fill-rule:evenodd; clip-rule:evenodd"
viewBox="0 0 21000 29700"
 xmlns:xlink="http://www.w3.org/1999/xlink">
 <defs>
  <style type="text/css">
   <![CDATA[
    .str0 {stroke:#373435;stroke-width:7.62}
    .fil0 {fill:#FEFEFE}
   ]]>
  </style>
 </defs>
 <g id="Layer_x0020_1">
  <metadata id="CorelCorpID_0Corel-Layer"/>
  <path class="fil0 str0" d="M17247 11205l-4751 4751c-529,528 -1248,826 -1996,826 -748,0 -1467,-298 -1996,-826l-4751 -4751c-8,89 -26,170 -26,258l0 6774c1,1558 1264,2820 2822,2822l7902 0c1558,-2 2821,-1264 2822,-2822l0 -6774c0,-88 -18,-169 -26,-258z"/>
  <path class="fil0 str0" d="M11698 15158l5155 -5156c-507,-842 -1419,-1358 -2402,-1361l-7902 0c-983,3 -1895,519 -2402,1361l5155 5156c318,317 749,495 1198,495 449,0 880,-178 1198,-495l0 0z"/>
 </g>
</svg>
