<?xml version="1.0" encoding="UTF-8"?>
<!DOCTYPE svg PUBLIC "-//W3C//DTD SVG 1.1//EN" "http://www.w3.org/Graphics/SVG/1.1/DTD/svg11.dtd">
<!-- Creator: CorelDRAW X7 -->
<svg xmlns="http://www.w3.org/2000/svg" xml:space="preserve" width="210mm" height="297mm" version="1.1" style="shape-rendering:geometricPrecision; text-rendering:geometricPrecision; image-rendering:optimizeQuality; fill-rule:evenodd; clip-rule:evenodd"
viewBox="0 0 21000 29700"
 xmlns:xlink="http://www.w3.org/1999/xlink">
 <defs>
  <style type="text/css">
   <![CDATA[
    .str0 {stroke:#373435;stroke-width:7.62}
    .fil0 {fill:#FEFEFE}
   ]]>
  </style>
 </defs>
 <g id="Layer_x0020_1">
  <metadata id="CorelCorpID_0Corel-Layer"/>
  <g id="_292716128">
   <path class="fil0 str0" d="M10500 8244c-3741,0 -6773,3032 -6773,6773 0,2993 1940,5532 4632,6427 338,63 462,-146 462,-325 0,-162 -6,-695 -9,-1261 -1884,410 -2282,-799 -2282,-799 -308,-783 -752,-992 -752,-992 -614,-420 47,-411 47,-411 680,48 1038,698 1038,698 604,1035 1584,736 1971,563 61,-438 236,-737 430,-906 -1504,-171 -3086,-752 -3086,-3347 0,-740 265,-1344 698,-1818 -70,-171 -302,-860 66,-1793 0,0 569,-182 1863,694 540,-150 1119,-225 1695,-228 576,3 1155,78 1697,228 1292,-876 1861,-694 1861,-694 368,933 136,1622 66,1793 434,474 697,1078 697,1818 0,2601 -1584,3174 -3092,3342 243,210 459,622 459,1254 0,907 -8,1636 -8,1859 0,180 122,391 465,325 2691,-897 4629,-3435 4629,-6426 -1,-3741 -3033,-6774 -6774,-6774z"/>
   <path class="fil0 str0" d="M6292 17969c-15,34 -68,44 -116,21 -49,-22 -77,-68 -61,-102 15,-34 68,-44 117,-20 49,21 77,67 60,101l0 0z"/>
   <path class="fil0 str0" d="M6566 18275c-32,30 -95,16 -138,-31 -44,-47 -52,-111 -20,-141 34,-29 95,-15 139,32 45,47 53,110 19,140l0 0z"/>
   <path class="fil0 str0" d="M6833 18665c-41,29 -109,2 -151,-58 -42,-60 -42,-133 1,-161 42,-29 109,-3 152,57 41,60 41,133 -2,162l0 0z"/>
   <path class="fil0 str0" d="M7199 19042c-37,41 -116,30 -174,-26 -59,-55 -75,-132 -38,-173 38,-41 117,-29 175,26 59,55 77,132 37,173l0 0z"/>
   <path class="fil0 str0" d="M7704 19261c-16,53 -92,77 -169,54 -77,-23 -127,-85 -111,-139 16,-53 92,-78 170,-54 76,23 126,85 110,139l0 0z"/>
   <path class="fil0 str0" d="M8259 19301c1,56 -64,102 -144,104 -81,1 -147,-44 -148,-99 0,-56 64,-102 145,-104 81,-1 147,44 147,99l0 0z"/>
   <path class="fil0 str0" d="M8774 19214c10,54 -46,110 -126,125 -78,15 -151,-19 -161,-73 -10,-56 47,-112 125,-127 80,-14 152,19 162,75l0 0z"/>
  </g>
 </g>
</svg>
