<?xml version="1.0" encoding="UTF-8"?>
<!DOCTYPE svg PUBLIC "-//W3C//DTD SVG 1.1//EN" "http://www.w3.org/Graphics/SVG/1.1/DTD/svg11.dtd">
<!-- Creator: CorelDRAW X7 -->
<svg xmlns="http://www.w3.org/2000/svg" xml:space="preserve" width="64px" height="64px" version="1.1" style="shape-rendering:geometricPrecision; text-rendering:geometricPrecision; image-rendering:optimizeQuality; fill-rule:evenodd; clip-rule:evenodd"
viewBox="0 0 64 64"
 xmlns:xlink="http://www.w3.org/1999/xlink">
 <defs>
  <style type="text/css">
   <![CDATA[
    .str0 {stroke:#373435;stroke-width:0.900011}
    .fil0 {fill:#FEFEFE}
   ]]>
  </style>
 </defs>
 <g id="Layer_x0020_1">
  <metadata id="CorelCorpID_0Corel-Layer"/>
  <g id="_292716128">
   <path class="fil0 str0" d="M32 1c-17,0 -31,14 -31,32 0,14 9,26 21,30 2,0 2,-1 2,-1 0,-1 0,-4 0,-6 -8,2 -10,-4 -10,-4 -2,-4 -4,-5 -4,-5 -2,-2 1,-2 1,-2 3,1 4,4 4,4 3,4 8,3 9,2 1,-2 2,-3 2,-4 -6,-1 -14,-4 -14,-16 0,-3 1,-6 3,-8 0,-1 -1,-5 1,-9 0,0 2,-1 8,3 3,0 5,-1 8,-1 3,0 5,1 8,1 6,-4 8,-3 8,-3 2,4 1,8 1,9 2,2 3,5 3,8 0,12 -7,15 -14,16 1,1 2,3 2,6 0,4 0,8 0,9 0,0 0,1 2,1 12,-4 21,-16 21,-30 0,-18 -14,-32 -31,-32z"/>
   <path class="fil0 str0" d="M13 47c0,0 -1,0 -1,0 0,0 0,0 0,-1 0,0 0,0 1,0 0,0 0,1 0,1l0 0z"/>
   <path class="fil0 str0" d="M14 48c0,0 0,0 -1,0 0,0 0,0 0,-1 0,0 1,0 1,1 0,0 0,0 0,0l0 0z"/>
   <path class="fil0 str0" d="M15 50c0,0 0,0 0,0 -1,-1 -1,-1 0,-1 0,0 0,0 0,0 0,1 0,1 0,1l0 0z"/>
   <path class="fil0 str0" d="M17 52c0,0 -1,0 -1,0 0,-1 0,-1 0,-1 0,0 1,0 1,0 0,0 0,1 0,1l0 0z"/>
   <path class="fil0 str0" d="M19 53c0,0 0,0 -1,0 0,0 0,0 0,-1 0,0 0,0 1,0 0,0 0,1 0,1l0 0z"/>
   <path class="fil0 str0" d="M22 53c0,0 0,1 -1,1 0,0 -1,-1 -1,-1 0,0 1,0 1,0 0,0 1,0 1,0l0 0z"/>
   <path class="fil0 str0" d="M24 53c0,0 0,0 0,0 -1,0 -1,0 -1,0 0,0 0,-1 0,-1 1,0 1,0 1,1l0 0z"/>
  </g>
 </g>
</svg>
