<?xml version="1.0" encoding="UTF-8"?>
<!DOCTYPE svg PUBLIC "-//W3C//DTD SVG 1.1//EN" "http://www.w3.org/Graphics/SVG/1.1/DTD/svg11.dtd">
<!-- Creator: CorelDRAW X7 -->
<svg xmlns="http://www.w3.org/2000/svg" xml:space="preserve" width="64px" height="64px" version="1.1" style="shape-rendering:geometricPrecision; text-rendering:geometricPrecision; image-rendering:optimizeQuality; fill-rule:evenodd; clip-rule:evenodd"
viewBox="0 0 64 64"
 xmlns:xlink="http://www.w3.org/1999/xlink">
 <defs>
  <style type="text/css">
   <![CDATA[
    .fil0 {fill:#FEFEFE}
   ]]>
  </style>
 </defs>
 <g id="Layer_x0020_1">
  <metadata id="CorelCorpID_0Corel-Layer"/>
  <g id="SVGRepo_bgCarrier">
  </g>
  <g id="SVGRepo_tracerCarrier">
  </g>
  <g id="SVGRepo_iconCarrier">
   <path class="fil0" d="M9 1c-3,2 -8,9 -8,11l0 3c0,3 3,7 6,7 3,0 6,-3 6,-7 0,4 3,7 7,7 3,0 6,-3 6,-7 0,4 3,7 6,7l0 0c3,0 6,-3 6,-7 0,4 3,7 7,7 3,0 6,-3 6,-7 0,4 3,7 6,7 3,0 6,-4 6,-7l0 -3c0,-2 -5,-9 -8,-11 -8,0 -14,0 -23,0 -9,0 -20,0 -23,0l0 0zm16 19c0,1 0,1 -1,2l0 0c-1,1 -3,2 -5,2 -2,0 -3,-1 -5,-2 0,-1 -1,-1 -1,-2 0,1 -1,1 -1,2 -1,1 -3,2 -5,2 0,0 0,0 0,0 0,0 -1,0 -1,0 0,3 0,6 0,8l0 0c0,1 0,2 0,4 0,6 -1,21 2,25 5,1 15,2 24,2l0 0c9,0 19,-1 24,-2 3,-4 2,-19 2,-25 0,-2 0,-3 0,-4l0 0c0,-2 0,-5 0,-8 0,0 -1,0 -1,0 0,0 0,0 0,0 -2,0 -4,-1 -5,-2l0 0c0,-1 -1,-1 -1,-2l0 0c0,1 -1,1 -1,2 -2,1 -3,2 -5,2 -2,0 -4,-1 -5,-2 -1,-1 -1,-1 -2,-2l0 0c0,1 0,1 -1,2 -1,1 -3,2 -5,2 0,0 0,0 0,0 0,0 0,0 0,0 0,0 0,0 0,0 0,0 0,0 0,0 -2,0 -4,-1 -5,-2 -1,-1 -1,-1 -1,-2l0 0 -1 0zm-5 7c2,0 4,0 7,3 1,0 3,0 5,0 2,0 4,0 5,0 3,-3 5,-3 7,-3l0 0c1,0 4,0 7,9l3 11c2,9 -1,9 -4,9 -5,0 -8,-4 -8,-8 -3,0 -7,0 -10,0 -3,0 -7,0 -10,0 0,4 -3,8 -8,8 -3,0 -6,0 -4,-9l3 -11c3,-9 6,-9 7,-9l0 0zm12 7c0,0 -6,6 -7,8l4 0 0 3c0,0 2,0 3,0 1,0 3,0 3,0l0 -3 4 0c-1,-2 -7,-8 -7,-8l0 0z"/>
  </g>
 </g>
</svg>
