<?xml version="1.0" encoding="UTF-8"?>
<!DOCTYPE svg PUBLIC "-//W3C//DTD SVG 1.1//EN" "http://www.w3.org/Graphics/SVG/1.1/DTD/svg11.dtd">
<!-- Creator: CorelDRAW X7 -->
<svg xmlns="http://www.w3.org/2000/svg" xml:space="preserve" width="210mm" height="297mm" version="1.1" style="shape-rendering:geometricPrecision; text-rendering:geometricPrecision; image-rendering:optimizeQuality; fill-rule:evenodd; clip-rule:evenodd"
viewBox="0 0 21000 29700"
 xmlns:xlink="http://www.w3.org/1999/xlink"
 data-name="Isolation Mode">
 <defs>
  <style type="text/css">
   <![CDATA[
    .str0 {stroke:#373435;stroke-width:7.62}
    .fil0 {fill:#FEFEFE}
   ]]>
  </style>
 </defs>
 <g id="Layer_x0020_1">
  <metadata id="CorelCorpID_0Corel-Layer"/>
  <g id="_439330688">
   <path class="fil0 str0" d="M10499 8077c-3009,3 -5448,2545 -5451,5681 0,2977 4422,6959 4928,7404l524 461 524 -461c504,-445 4928,-4427 4928,-7404 -3,-3136 -2444,-5679 -5453,-5681l0 0zm0 1943c-2145,3 -3885,1815 -3887,4052 0,2122 3154,4962 3515,5279l373 329 373 -329c360,-317 3515,-3157 3515,-5279 -2,-2237 -1743,-4050 -3889,-4052l0 0z"/>
   <circle class="fil0 str0" cx="10500" cy="14850" r="1692"/>
  </g>
 </g>
</svg>
