<?xml version="1.0" encoding="UTF-8"?>
<!DOCTYPE svg PUBLIC "-//W3C//DTD SVG 1.1//EN" "http://www.w3.org/Graphics/SVG/1.1/DTD/svg11.dtd">
<!-- Creator: CorelDRAW X7 -->
<svg xmlns="http://www.w3.org/2000/svg" xml:space="preserve" width="210mm" height="297mm" version="1.1" style="shape-rendering:geometricPrecision; text-rendering:geometricPrecision; image-rendering:optimizeQuality; fill-rule:evenodd; clip-rule:evenodd"
viewBox="0 0 21000 29700"
 xmlns:xlink="http://www.w3.org/1999/xlink">
 <defs>
  <style type="text/css">
   <![CDATA[
    .str0 {stroke:#373435;stroke-width:7.62}
    .fil0 {fill:#FEFEFE}
   ]]>
  </style>
 </defs>
 <g id="Layer_x0020_1">
  <metadata id="CorelCorpID_0Corel-Layer"/>
  <g id="WA_Logo">
   <g>
    <path class="fil0 str0" d="M15277 10045c-1268,-1268 -2953,-1968 -4749,-1968 -3700,0 -6711,3010 -6713,6712 0,1183 309,2338 897,3356l-953 3478 3558 -933c981,535 2085,816 3208,817l3 0c3699,0 6711,-3011 6713,-6713 1,-1793 -697,-3480 -1964,-4749zm-4749 10328l-2 0c-1001,0 -1983,-269 -2840,-778l-204 -120 -2111 553 564 -2059 -133 -211c-559,-888 -853,-1915 -853,-2969 1,-3076 2505,-5579 5582,-5579 1490,0 2891,581 3944,1636 1054,1055 1633,2456 1633,3947 -2,3077 -2505,5580 -5580,5580zm3061 -4178c-168,-85 -993,-490 -1147,-546 -153,-56 -265,-84 -377,83 -113,168 -433,546 -531,658 -98,112 -196,126 -364,42 -168,-84 -708,-261 -1349,-832 -498,-445 -835,-994 -933,-1163 -98,-168 -10,-258 73,-342 76,-75 168,-196 252,-294 85,-97 112,-167 169,-279 56,-112 28,-210 -14,-294 -43,-84 -378,-910 -517,-1245 -136,-328 -275,-283 -378,-288 -98,-5 -209,-6 -322,-6 -111,0 -293,42 -447,210 -153,168 -587,574 -587,1399 0,826 601,1624 685,1735 84,112 1182,1807 2865,2533 400,173 713,276 956,353 402,128 768,110 1057,67 322,-48 992,-406 1132,-798 140,-391 140,-728 98,-797 -42,-71 -154,-112 -321,-196z"/>
   </g>
  </g>
 </g>
</svg>
