<?xml version="1.0" encoding="UTF-8"?>
<!DOCTYPE svg PUBLIC "-//W3C//DTD SVG 1.1//EN" "http://www.w3.org/Graphics/SVG/1.1/DTD/svg11.dtd">
<!-- Creator: CorelDRAW X7 -->
<svg xmlns="http://www.w3.org/2000/svg" xml:space="preserve" width="64px" height="64px" version="1.1" style="shape-rendering:geometricPrecision; text-rendering:geometricPrecision; image-rendering:optimizeQuality; fill-rule:evenodd; clip-rule:evenodd"
viewBox="0 0 64 64"
 xmlns:xlink="http://www.w3.org/1999/xlink">
 <defs>
  <style type="text/css">
   <![CDATA[
    .fil0 {fill:black}
   ]]>
  </style>
 </defs>
 <g id="Layer_x0020_1">
  <metadata id="CorelCorpID_0Corel-Layer"/>
  <g id="_493186392">
   <path class="fil0" d="M32 1c-18,0 -32,14 -32,32 0,14 9,26 22,30 1,0 2,-1 2,-1 0,-1 0,-4 0,-6 -9,2 -11,-4 -11,-4 -1,-4 -3,-5 -3,-5 -3,-2 0,-2 0,-2 3,0 5,4 5,4 3,4 7,3 9,2 0,-2 1,-3 2,-4 -7,-1 -14,-4 -14,-16 0,-3 1,-6 3,-8 0,-1 -2,-5 0,-9 0,0 3,-1 9,3 3,0 5,-1 8,-1 3,0 5,1 8,1 6,-4 9,-3 9,-3 2,4 0,8 0,9 2,2 3,5 3,8 0,12 -7,15 -14,16 1,1 2,3 2,6 0,4 0,8 0,9 0,0 1,1 2,1 13,-4 22,-16 22,-30 0,-18 -14,-32 -32,-32z"/>
   <path class="fil0" d="M12 47c0,0 0,0 0,0 -1,0 -1,0 -1,-1 0,0 1,0 1,0 0,0 0,1 0,1l0 0z"/>
   <path class="fil0" d="M13 48c0,0 0,0 0,0 0,0 0,0 0,-1 0,0 0,0 0,1 1,0 1,0 0,0l0 0z"/>
   <path class="fil0" d="M15 50c-1,0 -1,0 -1,0 0,-1 0,-1 0,-1 0,0 0,0 1,0 0,1 0,1 0,1l0 0z"/>
   <path class="fil0" d="M16 52c0,0 0,0 0,0 -1,-1 -1,-1 -1,-1 1,0 1,0 1,0 1,0 1,1 0,1l0 0z"/>
   <path class="fil0" d="M19 53c0,0 -1,0 -1,0 0,0 -1,0 -1,-1 1,0 1,0 1,0 1,0 1,1 1,1l0 0z"/>
   <path class="fil0" d="M21 53c0,0 0,1 0,1 -1,0 -1,-1 -1,-1 0,0 0,0 1,0 0,0 0,0 0,0l0 0z"/>
   <path class="fil0" d="M24 53c0,0 0,0 -1,0 0,0 0,0 -1,0 0,0 1,-1 1,-1 0,0 1,0 1,1l0 0z"/>
  </g>
 </g>
</svg>
