<?xml version="1.0" encoding="UTF-8"?>
<!DOCTYPE svg PUBLIC "-//W3C//DTD SVG 1.1//EN" "http://www.w3.org/Graphics/SVG/1.1/DTD/svg11.dtd">
<!-- Creator: CorelDRAW X7 -->
<svg xmlns="http://www.w3.org/2000/svg" xml:space="preserve" width="64px" height="64px" version="1.1" style="shape-rendering:geometricPrecision; text-rendering:geometricPrecision; image-rendering:optimizeQuality; fill-rule:evenodd; clip-rule:evenodd"
viewBox="0 0 64 64"
 xmlns:xlink="http://www.w3.org/1999/xlink">
 <defs>
  <style type="text/css">
   <![CDATA[
    .fil0 {fill:none}
    .fil1 {fill:#3174B9}
    .fil2 {fill:#CA3132}
   ]]>
  </style>
 </defs>
 <g id="Layer_x0020_1">
  <metadata id="CorelCorpID_0Corel-Layer"/>
  <g id="SVGRepo_bgCarrier">
  </g>
  <g id="SVGRepo_tracerCarrier">
  </g>
  <g id="SVGRepo_iconCarrier">
   <g>
    <polygon class="fil0" points="0,0 64,0 64,64 0,64 "/>
    <path class="fil1" d="M27 34c0,0 -2,1 1,1 3,0 5,0 8,0 0,0 1,0 2,1 -8,3 -17,-1 -11,-2l0 0zm-1 -5c0,0 -2,2 1,2 3,0 6,0 10,-1 0,0 1,1 2,1 -9,3 -20,1 -13,-2l0 0z"/>
    <path class="fil2" d="M34 22c2,2 -1,4 -1,4 0,0 5,-2 3,-6 -2,-2 -4,-4 5,-9 0,0 -14,3 -7,11l0 0z"/>
    <path class="fil1" d="M44 37c0,0 1,1 -1,2 -5,1 -19,1 -23,0 -1,-1 1,-2 2,-2 1,0 2,0 2,0 -2,-1 -11,2 -5,3 16,3 29,-1 25,-3l0 0zm-17 -12c0,0 -7,2 -2,2 2,0 6,0 9,0 3,0 7,-1 7,-1 0,0 -2,1 -2,1 -8,2 -22,1 -18,-1 4,-1 6,-1 6,-1l0 0zm13 7c8,-4 5,-8 2,-7 -1,0 -1,0 -1,0 0,0 0,0 1,0 5,-2 8,5 -2,7 0,0 0,0 0,0z"/>
    <path class="fil2" d="M36 3c0,0 4,4 -4,10 -6,6 -1,8 0,12 -4,-4 -7,-7 -5,-9 3,-5 11,-7 9,-13l0 0z"/>
    <path class="fil1" d="M28 43c7,0 18,-1 19,-4 0,0 -1,1 -6,2 -6,2 -14,1 -18,1 0,0 0,0 5,1l0 0z"/>
    <path class="fil2" d="M46 49l0 0 0 0 1 0 0 0 0 0 0 0 -1 0 0 0zm2 0l0 0 -1 0 0 0 0 0 0 0 0 0 0 0 0 0 0 0 0 0 0 0 1 0 0 0 0 0 0 0 0 0zm-21 7c-1,0 -1,1 -2,1 -1,0 -1,-1 -1,-2 0,-1 0,-1 2,-1l1 0 0 2 0 0zm2 2l0 -7c0,-1 -1,-2 -3,-2 -2,0 -3,0 -4,0l0 1c1,0 2,0 3,0 1,0 2,0 2,2l0 0 -1 0c-3,0 -4,2 -4,4 0,1 1,2 2,2 2,0 2,0 3,-1l0 1 2 0zm6 0l-2 0 -3 -9 2 0 2 5 0 2c1,-2 2,-5 2,-7l2 0c-1,3 -2,6 -3,9zm9 -2c-1,0 -1,1 -2,1 -1,0 -1,-1 -1,-2 0,-1 0,-1 2,-1l1 0 0 2zm2 2l0 -7c0,-1 -1,-2 -3,-2 -2,0 -3,0 -4,0l1 1c0,0 1,0 2,0 2,0 2,0 2,2l0 0 -1 0c-3,0 -4,2 -4,4 0,1 1,2 3,2 1,0 2,0 2,-1l0 1 2 0zm-26 1c-1,1 -2,2 -3,2l-1 -1c1,0 2,-1 2,-1 0,-1 0,-2 0,-3l0 -11 2 0 0 11c0,2 0,3 0,3z"/>
   </g>
  </g>
 </g>
</svg>
