<?xml version="1.0" encoding="UTF-8"?>
<!DOCTYPE svg PUBLIC "-//W3C//DTD SVG 1.1//EN" "http://www.w3.org/Graphics/SVG/1.1/DTD/svg11.dtd">
<!-- Creator: CorelDRAW X7 -->
<svg xmlns="http://www.w3.org/2000/svg" xml:space="preserve" width="64px" height="91px" version="1.1" style="shape-rendering:geometricPrecision; text-rendering:geometricPrecision; image-rendering:optimizeQuality; fill-rule:evenodd; clip-rule:evenodd"
viewBox="0 0 64 91"
 xmlns:xlink="http://www.w3.org/1999/xlink">
 <defs>
  <style type="text/css">
   <![CDATA[
    .fil0 {fill:none}
    .fil1 {fill:#3174B9}
    .fil2 {fill:#CA3132}
   ]]>
  </style>
 </defs>
 <g id="Layer_x0020_1">
  <metadata id="CorelCorpID_0Corel-Layer"/>
  <g id="SVGRepo_bgCarrier">
  </g>
  <g id="SVGRepo_tracerCarrier">
  </g>
  <g id="SVGRepo_iconCarrier">
   <g>
    <polygon class="fil0" points="29,43 35,43 35,48 29,48 "/>
    <path class="fil1" d="M32 45c0,0 -1,0 0,0 0,1 0,1 0,0 0,0 0,1 1,1 -1,0 -2,0 -1,-1l0 0zm-1 0c0,0 0,0 1,0 0,0 0,0 0,0 0,0 0,0 1,0 -1,0 -2,0 -2,0l0 0z"/>
    <path class="fil2" d="M32 44c0,1 0,1 0,1 0,0 0,0 0,-1 0,0 0,0 1,0 0,0 -1,0 -1,0l0 0z"/>
    <path class="fil1" d="M33 46c0,0 0,0 0,0 0,0 -2,0 -2,0 0,0 0,0 0,0 0,0 0,0 0,0 0,0 -1,0 0,0 1,0 2,0 2,0l0 0zm-1 -1c0,0 -1,0 -1,0 1,0 1,0 1,0 0,0 1,0 1,0 0,0 0,0 0,0 -1,0 -2,0 -2,0 0,0 1,0 1,0l0 0zm1 0c0,0 0,0 0,0 0,0 0,0 0,0 0,0 0,0 0,0 0,0 0,0 0,0 0,0 0,0 0,0z"/>
    <path class="fil2" d="M32 43c0,0 1,0 0,1 -1,0 0,0 0,1 0,-1 -1,-1 0,-1 0,0 0,-1 0,-1l0 0z"/>
    <path class="fil1" d="M32 46c0,0 1,0 1,0 0,0 0,0 0,0 -1,0 -1,0 -2,0 0,0 0,0 1,0l0 0z"/>
    <path class="fil2" d="M33 47l0 0 0 0 0 0 0 0 0 0 0 0 0 0 0 0zm0 0l0 0 0 0 0 0 0 0 0 0 0 0 0 0 0 0 0 0 0 0 0 0 0 0 0 0 0 0 0 0 0 0zm-1 0c0,0 -1,0 -1,0 0,0 0,0 0,0 0,0 0,0 1,0l0 0 0 0 0 0zm0 0l0 0c0,0 0,0 -1,0 0,0 0,0 0,0l0 0c0,0 0,0 0,0 1,0 1,0 1,0l0 0 0 0c-1,0 -1,0 -1,0 0,0 0,0 0,0 0,0 1,0 1,0l0 0 0 0zm0 0l0 0 0 0 0 0 0 0 0 0c0,0 0,0 0,0l0 0c0,0 0,0 0,0zm1 0c0,0 0,0 0,0 0,0 0,0 0,0 0,0 0,0 0,0l0 0 0 0zm0 0l0 0c0,0 0,0 0,0 0,0 0,0 0,0l0 0c0,0 0,0 0,0 0,0 0,0 0,0l0 0 0 0c0,0 0,0 0,0 0,0 0,0 0,0 0,0 0,0 0,0l0 0 0 0zm-2 0c0,1 0,1 0,1l0 0c0,-1 0,-1 0,-1 0,0 0,0 0,0l0 -1 0 0 0 1c0,0 0,0 0,0z"/>
   </g>
  </g>
 </g>
</svg>
