<?xml version="1.0" encoding="UTF-8"?>
<!DOCTYPE svg PUBLIC "-//W3C//DTD SVG 1.1//EN" "http://www.w3.org/Graphics/SVG/1.1/DTD/svg11.dtd">
<!-- Creator: CorelDRAW X7 -->
<svg xmlns="http://www.w3.org/2000/svg" xml:space="preserve" width="64px" height="91px" version="1.1" style="shape-rendering:geometricPrecision; text-rendering:geometricPrecision; image-rendering:optimizeQuality; fill-rule:evenodd; clip-rule:evenodd"
viewBox="0 0 64 91"
 xmlns:xlink="http://www.w3.org/1999/xlink">
 <defs>
  <style type="text/css">
   <![CDATA[
    .fil0 {fill:#FEFEFE}
    .fil1 {fill:black}
   ]]>
  </style>
 </defs>
 <g id="Layer_x0020_1">
  <metadata id="CorelCorpID_0Corel-Layer"/>
  <g id="SVGRepo_bgCarrier">
  </g>
  <g id="SVGRepo_tracerCarrier">
  </g>
  <polygon class="fil0" points="30,45 32,44 34,43 34,45 34,47 32,47 "/>
  <g id="SVGRepo_iconCarrier">
   <path class="fil1" d="M34 47l-1 -2 1 -1 0 1 0 2zm-2 0l-2 -1 2 0 1 1 -1 0zm0 -3l1 -1 -1 2 -2 0c0,0 2,-1 2,-1zm2 -1l-2 0 0 1 -1 0 -2 1 2 2 1 0 0 0 2 1 1 -2 -1 -1 1 0 -1 -2z"/>
  </g>
 </g>
</svg>
