<?xml version="1.0" encoding="UTF-8"?>
<!DOCTYPE svg PUBLIC "-//W3C//DTD SVG 1.1//EN" "http://www.w3.org/Graphics/SVG/1.1/DTD/svg11.dtd">
<!-- Creator: CorelDRAW X7 -->
<svg xmlns="http://www.w3.org/2000/svg" xml:space="preserve" width="64px" height="64px" version="1.1" style="shape-rendering:geometricPrecision; text-rendering:geometricPrecision; image-rendering:optimizeQuality; fill-rule:evenodd; clip-rule:evenodd"
viewBox="0 0 64 64"
 xmlns:xlink="http://www.w3.org/1999/xlink">
 <defs>
  <style type="text/css">
   <![CDATA[
    .fil0 {fill:#FEFEFE}
    .fil1 {fill:black}
   ]]>
  </style>
 </defs>
 <g id="Layer_x0020_1">
  <metadata id="CorelCorpID_0Corel-Layer"/>
  <g id="SVGRepo_bgCarrier">
  </g>
  <g id="SVGRepo_tracerCarrier">
  </g>
  <g id="SVGRepo_iconCarrier">
   <polygon class="fil0" points="8,32 28,13 53,7 60,33 53,56 26,50 "/>
   <path class="fil1" d="M53 51l-11 -19 11 -19 6 19 -6 19zm-25 -2l-15 -14 23 0 12 19 -20 -5zm0 -35l20 -5 -12 20 -23 0c0,0 15,-15 15,-15zm29 -14l-26 7 -4 6 -8 0 -19 19 19 19 8 0 4 6 26 7 7 -25 -4 -7 4 -7 -7 -25z"/>
  </g>
 </g>
</svg>
