<?xml version="1.0" encoding="UTF-8"?>
<!DOCTYPE svg PUBLIC "-//W3C//DTD SVG 1.1//EN" "http://www.w3.org/Graphics/SVG/1.1/DTD/svg11.dtd">
<!-- Creator: CorelDRAW X7 -->
<svg xmlns="http://www.w3.org/2000/svg" xml:space="preserve" width="60px" height="64px" version="1.1" style="shape-rendering:geometricPrecision; text-rendering:geometricPrecision; image-rendering:optimizeQuality; fill-rule:evenodd; clip-rule:evenodd"
viewBox="0 0 60 64"
 xmlns:xlink="http://www.w3.org/1999/xlink">
 <defs>
  <style type="text/css">
   <![CDATA[
    .str0 {stroke:#373435;stroke-width:0.900035}
    .fil0 {fill:#FEFEFE}
   ]]>
  </style>
 </defs>
 <g id="Layer_x0020_1">
  <metadata id="CorelCorpID_0Corel-Layer"/>
  <g id="SVGRepo_bgCarrier">
  </g>
  <g id="SVGRepo_tracerCarrier">
  </g>
  <g id="SVGRepo_iconCarrier">
   <path class="fil0 str0" d="M19 12c-2,0 -3,1 -3,3 0,1 1,2 3,2l12 0 -11 6c-1,1 -1,2 -1,4 0,1 1,2 3,2l13 0c0,0 1,0 1,0l0 7c0,0 0,0 -1,0l-5 5c0,0 0,0 0,0l-6 -6c-2,-1 -3,-1 -4,0 -1,1 -1,3 0,4l8 9c1,1 3,1 4,0l8 -9c1,0 1,-1 1,-2l0 -11c0,-2 -1,-3 -3,-3l-6 0 11 -6c1,-1 1,-2 1,-3 0,-1 -2,-2 -3,-2l-22 0z"/>
   <path class="fil0 str0" d="M8 1c-5,0 -9,4 -8,9l4 31c1,2 2,4 3,5l17 15c4,3 8,3 12,0l17 -15c1,-1 2,-3 3,-5l4 -31c1,-5 -3,-9 -8,-9l-44 0zm-2 8c-1,-1 1,-3 2,-3l44 0c1,0 3,2 2,3l-4 31c0,1 0,2 -1,2l-17 15c-1,1 -3,1 -4,0l-17 -15c-1,0 -1,-1 -1,-2l-4 -31z"/>
  </g>
 </g>
</svg>
