<?xml version="1.0" encoding="UTF-8"?>
<!DOCTYPE svg PUBLIC "-//W3C//DTD SVG 1.1//EN" "http://www.w3.org/Graphics/SVG/1.1/DTD/svg11.dtd">
<!-- Creator: CorelDRAW X7 -->
<svg xmlns="http://www.w3.org/2000/svg" xml:space="preserve" width="64px" height="64px" version="1.1" style="shape-rendering:geometricPrecision; text-rendering:geometricPrecision; image-rendering:optimizeQuality; fill-rule:evenodd; clip-rule:evenodd"
viewBox="0 0 64 64"
 xmlns:xlink="http://www.w3.org/1999/xlink">
 <defs>
  <style type="text/css">
   <![CDATA[
    .str0 {stroke:#FEFEFE;stroke-width:0.900011}
    .fil0 {fill:#FEFEFE}
   ]]>
  </style>
 </defs>
 <g id="Layer_x0020_1">
  <metadata id="CorelCorpID_0Corel-Layer"/>
  <g id="SVGRepo_bgCarrier">
  </g>
  <g id="SVGRepo_tracerCarrier">
  </g>
  <g id="_250446056">
   <path class="fil0 str0" d="M24 48c0,0 -2,1 2,1 5,1 7,1 12,0 0,0 1,1 3,1 -11,5 -25,0 -17,-2l0 0zm-1 -7c0,0 -2,2 1,3 5,0 9,0 16,-1 0,0 1,1 2,1 -14,4 -29,1 -19,-3l0 0z"/>
   <path class="fil0 str0" d="M35 31c2,3 -1,6 -1,6 0,0 7,-4 4,-8 -3,-5 -6,-7 7,-14 0,0 -20,5 -10,16z"/>
   <path class="fil0 str0" d="M50 52c0,0 1,2 -2,3 -7,2 -27,2 -33,0 -2,-1 2,-2 3,-3 1,0 2,0 2,0 -2,-1 -15,3 -6,5 23,3 42,-2 36,-5l0 0zm-24 -17c0,0 -11,2 -4,3 3,1 8,1 14,0 4,0 8,-1 8,-1 0,0 -1,1 -2,1 -11,3 -31,2 -26,-1 5,-2 10,-2 10,-2zm18 10c11,-5 6,-11 3,-10 -1,0 -2,0 -2,0 0,0 1,0 1,0 7,-3 12,7 -2,11 0,0 0,0 0,-1l0 0z"/>
   <path class="fil0 str0" d="M38 3c0,0 6,6 -6,15 -9,8 -2,12 0,17 -5,-5 -9,-9 -7,-13 4,-6 15,-9 13,-19z"/>
   <path class="fil0 str0" d="M27 61c10,0 26,-1 26,-6 0,0 -1,2 -8,4 -9,1 -20,1 -27,0 0,0 2,1 9,2z"/>
  </g>
 </g>
</svg>
